<?xml version="1.0" encoding="UTF-8" standalone="no"?>
<!-- Created with Inkscape (http://www.inkscape.org/) -->

<svg
   xmlns:dc="http://purl.org/dc/elements/1.1/"
   xmlns:cc="http://creativecommons.org/ns#"
   xmlns:rdf="http://www.w3.org/1999/02/22-rdf-syntax-ns#"
   xmlns:svg="http://www.w3.org/2000/svg"
   xmlns="http://www.w3.org/2000/svg"
   xmlns:sodipodi="http://sodipodi.sourceforge.net/DTD/sodipodi-0.dtd"
   xmlns:inkscape="http://www.inkscape.org/namespaces/inkscape"
   width="170"
   height="200"
   viewBox="0 0 210 297"
   version="1.1"
   id="svg8"
   inkscape:version="0.92.4 (5da689c313, 2019-01-14)"
   sodipodi:docname="design-for-diversity.svg">
  <defs
     id="defs2" />
  <sodipodi:namedview
     id="base"
     pagecolor="#ffffff"
     bordercolor="#666666"
     borderopacity="1.0"
     inkscape:pageopacity="0.0"
     inkscape:pageshadow="2"
     inkscape:zoom="1.4"
     inkscape:cx="85.181711"
     inkscape:cy="53.802288"
     inkscape:document-units="mm"
     inkscape:current-layer="svg8"
     showgrid="false"
     inkscape:window-width="1916"
     inkscape:window-height="1165"
     inkscape:window-x="0"
     inkscape:window-y="16"
     inkscape:window-maximized="0" />
  <g
     id="g91"
     transform="matrix(2.1256395,0,0,1.9690383,560.52765,-108.32161)">
    <path
       style="fill:#a4642a;stroke-width:0.08466666"
       d="m -273.66316,205.60736 c -0.0225,-0.0593 -0.0312,-33.97873 -0.0193,-75.3765 l 0.0216,-75.268666 h 37.42267 c 38.91723,0 38.38016,-0.0044 42.418,0.343729 11.92429,1.027933 20.71879,4.005951 27.0413,9.156798 1.19077,0.970106 3.26415,3.05691 4.18834,4.215473 4.14664,5.198182 6.55503,11.794458 7.37274,20.192999 0.29326,3.011895 0.30195,4.168739 0.3019,40.162557 -5e-5,35.94048 -0.01,37.27581 -0.30045,40.27078 -1.68472,17.37241 -10.04756,28.32469 -25.43817,33.31473 -4.80494,1.55788 -9.53567,2.39122 -16.67933,2.93812 -1.99236,0.15253 -76.27199,0.20117 -76.32934,0.05 z m 91.66659,-45.25638 0.0297,-72.622787 c -0.0467,-0.121679 -2.30084,0.04233 -23.72007,0.04233 H -229.262 l 0.0256,0.44211 0.0256,0.442109 16.62072,4.915965 c 9.99716,2.956895 16.56372,4.967949 16.61093,5.042588 l -3e-5,61.778505 z m -43.59129,-42.18052 c 0.51945,-0.24355 0.73722,-0.69612 0.96494,-1.28042 0.19684,-0.50503 0.22188,-3.94935 0.0334,-4.59861 -0.16887,-0.58184 -0.72803,-1.13859 -2.28497,-2.27513 -0.71737,-0.52366 -1.38412,-1.05953 -1.48167,-1.19081 -0.15799,-0.21262 -0.18036,-0.37694 -0.20465,-1.50325 l -0.0273,-1.26453 0.2536,-0.25359 c 0.22175,-0.22176 0.31356,-0.25359 0.73133,-0.25359 0.93009,0 1.00441,0.13663 1.05928,1.94733 l 0.0423,1.397 h 0.97366 0.97367 l 0.0231,-1.60156 c 0.0265,-1.84118 -0.0516,-2.26031 -0.52428,-2.81254 -0.16798,-0.19624 -0.48943,-0.43268 -0.74396,-0.54722 -0.41161,-0.18522 -0.55527,-0.20136 -1.76052,-0.19782 -1.82456,0.005 -2.37874,0.23868 -2.85093,1.20027 l -0.2394,0.48754 v 1.905 c 0,2.63761 -0.0535,2.53912 2.32146,4.27587 0.75377,0.55122 1.4542,1.11957 1.55651,1.263 0.16946,0.23757 0.18844,0.38047 0.21316,1.60468 0.0293,1.44924 -0.0252,1.7335 -0.36725,1.91656 -0.11107,0.0594 -0.41603,0.10808 -0.67769,0.10808 -0.53419,0 -0.88557,-0.19304 -0.98257,-0.53982 -0.0314,-0.11223 -0.0609,-0.88032 -0.0655,-1.70687 l -0.008,-1.50284 h -1.02293 -1.02293 l 0.0293,1.92617 c 0.0275,1.8087 0.0415,1.95331 0.22929,2.37128 0.20751,0.46177 0.62729,0.89786 1.01355,1.05293 0.48861,0.19614 0.78067,0.22701 2.00143,0.21144 1.17627,-0.015 1.30503,-0.0326 1.74472,-0.23878 z m 11.85831,-0.12083 c 0.52257,-0.25659 0.88558,-0.69867 1.0841,-1.32022 0.0599,-0.1874 0.10993,-1.39265 0.13401,-3.22435 0.033,-2.50897 0.0206,-2.93987 -0.0866,-3.02888 -0.0906,-0.0752 -0.52951,-0.0974 -1.59557,-0.0806 l -1.47053,0.0232 v 0.889 0.889 l 0.508,0.0423 0.508,0.0423 0.0229,1.77733 c 0.0147,1.14098 -0.01,1.857 -0.0692,1.99985 -0.12693,0.30646 -0.41128,0.41382 -1.09599,0.41382 -0.49519,0 -0.62007,-0.0311 -0.82151,-0.2043 l -0.23755,-0.2043 -0.0256,-4.8122 c -0.0176,-3.2984 0.003,-4.91193 0.0668,-5.12921 0.11705,-0.40167 0.4301,-0.57199 1.05135,-0.57199 0.98178,0 1.08701,0.16677 1.13525,1.79916 l 0.0369,1.24884 h 1.01345 1.01345 l -0.0308,-1.5875 c -0.0278,-1.43541 -0.0493,-1.62806 -0.22414,-2.01084 -0.25252,-0.55282 -0.52966,-0.83264 -1.06208,-1.07236 -0.3971,-0.17879 -0.55492,-0.19574 -1.83154,-0.19664 -1.64567,-10e-4 -2.07513,0.10439 -2.61302,0.64227 -0.65709,0.6571 -0.63915,0.48903 -0.67263,6.2994 -0.0325,5.63935 -0.009,6.01861 0.40825,6.67704 0.27793,0.43825 0.52014,0.61687 1.1309,0.83399 0.36554,0.12994 0.65497,0.15075 1.83116,0.13165 1.34463,-0.0218 1.41557,-0.0318 1.89227,-0.26587 z m -26.80917,-0.002 c 0.93532,-0.29782 1.54509,-1.05165 1.71945,-2.12567 0.0461,-0.28408 0.082,-2.46732 0.0815,-4.953 -10e-4,-4.60845 -0.0375,-5.18148 -0.37062,-5.82572 -0.20508,-0.39659 -0.64369,-0.78731 -1.1509,-1.02525 -0.46382,-0.21762 -0.47733,-0.21872 -2.66752,-0.21872 h -2.20133 l -0.0216,7.1067 c -0.0172,5.62709 5e-4,7.12189 0.0847,7.17964 0.0585,0.0401 1.00167,0.0571 2.09599,0.0376 1.54296,-0.0274 2.08862,-0.0668 2.43043,-0.17565 z m -2.41247,-1.76536 c -0.0802,-0.0966 -0.099,-1.31312 -0.0821,-5.32278 l 0.0218,-5.19756 0.65357,-0.0247 c 0.82745,-0.0312 1.11697,0.10227 1.34639,0.62092 0.15751,0.35606 0.16373,0.5685 0.14075,4.80264 -0.0264,4.86045 -0.007,4.67884 -0.53827,5.02698 -0.30231,0.19808 -1.40033,0.26533 -1.54215,0.0944 z m 10.71629,0.97536 0.0239,-0.95035 -1.33625,-0.0233 -1.33625,-0.0233 -0.0226,-2.17819 -0.0226,-2.17819 0.19193,-0.0448 c 0.10555,-0.0246 0.68722,-0.0541 1.29259,-0.0655 l 1.10067,-0.0207 v -0.889 -0.889 l -1.10067,-0.0207 c -0.60537,-0.0114 -1.18639,-0.0407 -1.29117,-0.0651 l -0.1905,-0.0444 v -2.02878 -2.02877 l 0.1905,-0.0445 c 0.10478,-0.0245 0.70485,-0.0538 1.3335,-0.0651 l 1.143,-0.0206 v -0.889 -0.889 l -2.39183,-0.0225 -2.39183,-0.0225 v 7.14155 c 0,3.92784 0.026,7.16752 0.0577,7.19929 0.0318,0.0318 1.10809,0.0476 2.39184,0.0353 l 2.33407,-0.0225 z m 11.51239,-6.22517 0.0216,-7.1755 h -1.05882 -1.0588 v 7.14022 c 0,3.92713 0.0265,7.16677 0.059,7.19921 0.0325,0.0324 0.49917,0.0483 1.03717,0.0353 l 0.97818,-0.0237 z m 11.69682,7.10032 c 0.0725,-0.0874 0.0826,-1.24563 0.0392,-4.5131 -0.0413,-3.11302 -0.0314,-4.44366 0.0339,-4.56033 0.088,-0.15728 0.0958,-0.15516 0.17127,0.0469 0.0435,0.11642 0.52906,2.17382 1.07903,4.572 0.54996,2.39818 1.03698,4.40906 1.08226,4.46861 0.061,0.0802 0.35934,0.10214 1.14942,0.0847 l 1.06711,-0.0236 0.0216,-7.1755 0.0216,-7.1755 h -0.93181 -0.93181 v 4.23333 c 0,2.65264 -0.0304,4.23334 -0.0814,4.23334 -0.10449,0 -0.0966,0.0312 -1.10161,-4.35218 -0.46876,-2.04444 -0.87496,-3.80756 -0.90269,-3.91804 l -0.0504,-0.20087 -1.23911,0.0234 -1.23909,0.0234 -0.0217,7.1067 c -0.0171,5.62938 8.5e-4,7.12074 0.0847,7.17421 0.19261,0.12228 1.64119,0.083 1.74945,-0.0474 z"
       id="path95"
       inkscape:connector-curvature="0"
       sodipodi:nodetypes="cscsccccsccsccccscccsccccccccccccsccccccccccsccccscccccccccccccccccccccscsccccscccccccccsccccccccccsccccccccccccccccccccccccccccccccccccccsccccccccsccccccccccccccccsscccccccc" />
    <path
       style="fill:#1e1216;stroke-width:0.08466666"
       d="m -273.51331,205.5285 c -0.0836,-0.0836 -0.10517,-15.49163 -0.10517,-75.21954 0,-64.453804 0.0169,-75.128396 0.11911,-75.213219 0.16974,-0.140877 73.74591,-0.07911 75.95388,0.06377 0.8382,0.05424 2.28367,0.157901 3.21215,0.230363 14.6288,1.141684 25.01103,5.422662 31.24796,12.884687 5.00097,5.983304 7.55329,13.757869 7.99858,24.364301 0.11463,2.730261 0.11506,70.244048 8.5e-4,72.855668 -0.34467,7.85536 -1.72868,14.02068 -4.36194,19.431 -5.34364,10.97909 -15.43184,17.45767 -30.77355,19.76258 -2.10023,0.31554 -4.41816,0.54816 -7.83166,0.78596 -2.07666,0.14466 -75.31676,0.1975 -75.45983,0.0544 z m 91.52349,-41.34631 c 0.0339,-4.79636 0.053,-23.96066 0.0423,-42.58733 l -0.0193,-33.866667 h -23.70667 l -23.58851,0.04233 0.0512,0.884219 33.23165,9.958557 c 0,0 0,41.185671 0,61.778501 l -3.15384,1.06581 c -14.26057,4.81926 -29.9351,10.12563 -30.05666,10.17524 -0.12043,0.0491 -0.14817,0.16706 -0.14817,0.62995 0,0.31323 0.0255,0.59497 0.0566,0.6261 0.0311,0.0311 10.67056,0.047 23.64317,0.0353 l 23.58657,-0.0213 z m -42.3636,-8.0898 c 0.67887,-0.11016 1.0821,-0.31464 1.47243,-0.74669 0.49525,-0.54818 0.57051,-0.95169 0.57051,-3.05917 0,-2.76175 -0.0138,-2.78863 -2.28867,-4.45218 -1.53359,-1.1215 -1.67842,-1.25971 -1.78039,-1.69914 -0.1047,-0.45121 -0.0976,-1.86625 0.0114,-2.25862 0.11486,-0.41361 0.51657,-0.60892 1.09063,-0.53023 0.68145,0.0934 0.7172,0.17982 0.76572,1.85141 l 0.0423,1.45842 h 1.05833 1.05833 l 0.0248,-1.35466 c 0.0384,-2.09904 -0.1722,-2.88207 -0.921,-3.42451 -0.47638,-0.34508 -1.05965,-0.46161 -2.27878,-0.45526 -1.19442,0.006 -1.56655,0.0837 -2.13564,0.4446 -0.792,0.50227 -1.04457,1.45574 -0.97721,3.68917 0.0624,2.07032 0.13869,2.19163 2.43474,3.87316 0.72135,0.52828 1.39763,1.08825 1.50283,1.24437 0.17959,0.26649 0.19128,0.37008 0.19128,1.69469 0,1.29288 -0.0141,1.42601 -0.16899,1.59225 -0.32143,0.345 -1.22477,0.35684 -1.56161,0.0204 -0.16106,-0.16085 -0.17763,-0.30184 -0.21673,-1.84421 l -0.0423,-1.67005 -1.03491,-0.0238 -1.03491,-0.0237 -0.0551,0.2197 c -0.0303,0.12084 -0.0358,0.98878 -0.0122,1.92875 0.0472,1.8764 0.12157,2.23796 0.57305,2.78569 0.30438,0.36926 0.86937,0.65619 1.46292,0.74295 0.65986,0.0965 1.64305,0.095 2.24922,-0.003 z m -34.00806,-0.17563 c 0.89868,-0.19048 1.4639,-0.62959 1.83863,-1.42838 l 0.2187,-0.46619 v -5.24933 -5.24933 l -0.202,-0.44699 c -0.24576,-0.54383 -0.87268,-1.1311 -1.42833,-1.33799 -0.33456,-0.12457 -0.76594,-0.1554 -2.58184,-0.18449 l -2.18016,-0.0349 v 7.24637 7.24637 h 1.94316 c 1.1148,0 2.13443,-0.0405 2.39184,-0.0951 z m -2.09479,-1.95807 c -0.0222,-0.0582 -0.0306,-2.42993 -0.0185,-5.2705 l 0.022,-5.16466 0.55034,-0.0229 c 0.67914,-0.0283 1.0793,0.14941 1.29103,0.57325 0.13527,0.27077 0.14805,0.67829 0.14817,4.72437 1.7e-4,4.88675 0.0126,4.76763 -0.53315,5.10039 -0.32214,0.19642 -1.39089,0.2404 -1.45984,0.0601 z m 8.03773,1.91924 c 0.0672,-0.17501 0.0672,-14.03513 0,-14.21015 -0.0766,-0.19955 -2.10664,-0.19955 -2.18322,0 -0.0672,0.17502 -0.0672,14.03514 0,14.21015 0.043,0.11207 0.22117,0.13393 1.09161,0.13393 0.87044,0 1.0486,-0.0219 1.09161,-0.13393 z m 6.10486,0.0281 c 0.0555,-0.15943 2.07453,-13.96194 2.07453,-14.18172 0,-0.18647 -0.0204,-0.19045 -0.97548,-0.19045 -0.93196,0 -0.97898,0.008 -1.05381,0.1905 -0.0431,0.10477 -0.32968,2.26695 -0.63689,4.80483 -0.61172,5.05346 -0.62256,5.12907 -0.72052,5.02487 -0.0372,-0.0395 -0.34117,-2.28073 -0.67556,-4.98044 -0.3344,-2.69973 -0.62624,-4.9381 -0.64853,-4.97417 -0.0223,-0.0361 -0.51454,-0.0656 -1.09387,-0.0656 h -1.05334 v 0.24659 c 0,0.31642 2.0198,14.0585 2.08082,14.15723 0.0764,0.12359 2.65916,0.0933 2.70265,-0.0317 z m 8.32143,-0.83403 c 0.018,-0.67397 -0.005,-0.92118 -0.0905,-0.99249 -0.0702,-0.0582 -0.60334,-0.10405 -1.37857,-0.11846 l -1.26415,-0.0235 v -2.11667 -2.11667 l 1.27,-0.0423 1.27,-0.0423 v -0.97367 -0.97367 l -1.27,-0.0423 -1.27,-0.0423 v -1.98967 -1.98967 l 1.31233,-0.0423 1.31233,-0.0423 v -0.97367 -0.97367 h -2.413 -2.413 l -0.0219,7.112 c -0.012,3.9116 -0.003,7.16021 0.019,7.21914 0.0319,0.0837 0.57375,0.10222 2.47719,0.0847 l 2.43633,-0.0225 z m 3.69237,0.80593 c 0.0283,-0.0737 0.0514,-1.36833 0.0514,-2.87705 v -2.74313 l 0.21838,-0.0548 c 0.22286,-0.0559 1.01177,0.009 1.25843,0.10377 0.31237,0.11987 0.34262,0.3581 0.38585,3.03815 l 0.0423,2.62467 1.0795,0.0237 1.0795,0.0237 v -2.81213 c 0,-2.69263 -0.008,-2.8279 -0.17959,-3.18312 -0.10525,-0.2174 -0.31555,-0.46095 -0.508,-0.58832 -0.18063,-0.11953 -0.32841,-0.23195 -0.32841,-0.24983 0,-0.0179 0.16754,-0.1938 0.37233,-0.39092 0.57382,-0.55237 0.64367,-0.89562 0.64367,-3.16361 0,-1.03726 -0.0414,-2.0784 -0.092,-2.31435 -0.14183,-0.66134 -0.53738,-1.18058 -1.1294,-1.48254 l -0.50173,-0.25591 h -2.29227 -2.29228 l -0.0219,7.112 c -0.012,3.9116 -0.004,7.15963 0.0185,7.21784 0.0293,0.0768 0.32873,0.10583 1.0923,0.10583 0.88112,0 1.06028,-0.0217 1.10332,-0.13393 z m 0.10264,-7.641 c -0.0869,-0.14063 -0.0706,-4.60093 0.0172,-4.68868 0.0496,-0.0496 0.35916,-0.0725 0.72787,-0.0539 0.52677,0.0266 0.67578,0.0666 0.8328,0.22347 0.18518,0.185 0.19206,0.25 0.21696,2.04697 0.0296,2.13563 -0.008,2.30139 -0.55501,2.45333 -0.37984,0.10549 -1.17874,0.11762 -1.23979,0.0188 z m 15.64536,7.641 c 0.0783,-0.20414 0.0587,-14.11677 -0.0201,-14.24096 -0.0514,-0.081 -0.33608,-0.10248 -1.12054,-0.0847 l -1.05165,0.0239 -0.0219,7.112 c -0.012,3.9116 -0.004,7.15963 0.0185,7.21784 0.0293,0.0768 0.32873,0.10583 1.0923,0.10583 0.88112,0 1.06028,-0.0217 1.10332,-0.13393 z m 5.40601,-6.0679 0.0217,-6.20184 0.9021,-0.024 c 0.63409,-0.0168 0.93058,-0.0582 0.9979,-0.13936 0.0614,-0.074 0.0871,-0.42978 0.0716,-0.99205 l -0.0242,-0.87664 -3.07186,-0.0222 -3.07186,-0.0222 0.0239,0.99589 0.0239,0.9959 0.93134,0.0423 0.93133,0.0423 0.021,6.096 c 0.0116,3.3528 0.0389,6.14363 0.0608,6.20184 0.0289,0.0769 0.32957,0.10583 1.10025,0.10583 h 1.06044 z m 7.09164,3.45016 0.0426,-2.70933 1.12158,-4.36688 c 0.61686,-2.40178 1.12157,-4.43061 1.12157,-4.5085 0,-0.12448 -0.12238,-0.14162 -1.011,-0.14162 -0.55605,0 -1.02844,0.0286 -1.04975,0.0635 -0.0213,0.0349 -0.292,1.26365 -0.60155,2.7305 -0.30954,1.46685 -0.59512,2.7432 -0.63462,2.83633 -0.0675,0.15923 -0.0755,0.16018 -0.13416,0.016 -0.0343,-0.0843 -0.31625,-1.37973 -0.62661,-2.87866 l -0.56428,-2.72535 -1.11802,-0.0236 c -0.96142,-0.0203 -1.11801,-0.005 -1.11801,0.10702 0,0.0719 0.51435,2.18698 1.143,4.70027 l 1.143,4.56962 v 2.40727 c 0,1.32399 0.0236,2.46863 0.0523,2.54364 0.045,0.11723 0.20251,0.13306 1.12183,0.11276 l 1.0695,-0.0236 z m -7.58364,-16.17709 c 0.59507,-0.21044 1.10137,-0.74455 1.29263,-1.3636 0.13995,-0.45294 0.15242,-0.92981 0.15242,-5.82731 0,-3.9686 -0.0266,-5.42103 -0.10375,-5.67397 -0.18514,-0.60669 -0.55066,-1.0799 -1.0454,-1.35336 -0.45303,-0.25042 -0.48007,-0.2544 -1.91679,-0.28211 -1.68916,-0.0326 -2.15236,0.0581 -2.70282,0.5293 -0.19539,0.16724 -0.43355,0.49054 -0.54806,0.74396 l -0.20251,0.44818 v 5.588 5.588 l 0.19504,0.42334 c 0.34952,0.75863 0.87355,1.15531 1.72833,1.30832 0.70359,0.12593 2.65639,0.0461 3.15091,-0.12875 z m -2.39209,-1.82126 c -0.52556,-0.16062 -0.52319,-0.13632 -0.52319,-5.3543 0,-4.83503 0.0194,-5.13615 0.342,-5.3088 0.0852,-0.0456 0.42581,-0.0829 0.75695,-0.0829 0.52635,0 0.62821,0.0261 0.8099,0.20781 l 0.20781,0.20783 v 4.95212 4.95213 l -0.1905,0.22067 c -0.15185,0.1759 -0.28496,0.22783 -0.65616,0.256 -0.25612,0.0194 -0.59219,-0.003 -0.74681,-0.0506 z m -6.70386,-1.26331 0.0423,-3.09034 1.18188,-0.0237 c 0.81531,-0.0163 1.20224,-0.0557 1.24754,-0.127 0.0361,-0.0568 0.0657,-0.46528 0.0657,-0.90766 0,-0.44238 -0.0296,-0.85083 -0.0657,-0.90766 -0.0453,-0.0713 -0.43223,-0.11068 -1.24754,-0.127 l -1.18188,-0.0237 v -2.032 -2.032 l 1.27,-0.0423 1.27,-0.0423 v -0.97367 -0.97366 h -2.37067 -2.37067 l -0.0219,7.112 c -0.012,3.9116 -0.003,7.1608 0.0195,7.22045 0.0312,0.0819 0.2961,0.10262 1.08019,0.0847 l 1.03882,-0.0238 z m 14.34194,2.99874 c 0.0283,-0.0737 0.0514,-1.36906 0.0514,-2.87867 v -2.74474 h 0.67041 c 0.36873,0 0.73173,0.0235 0.80669,0.0523 0.31206,0.11975 0.34235,0.35847 0.38557,3.03804 l 0.0423,2.62467 1.0795,0.0237 1.0795,0.0237 -0.002,-2.8177 c -0.002,-3.21691 -0.0216,-3.32639 -0.66882,-3.75468 -0.18993,-0.12569 -0.34532,-0.25204 -0.34532,-0.28077 0,-0.0287 0.13345,-0.15872 0.29654,-0.28885 0.16309,-0.13014 0.38217,-0.39684 0.48683,-0.59267 0.18049,-0.3377 0.19166,-0.46644 0.21677,-2.49633 0.0214,-1.73353 0.002,-2.22529 -0.10362,-2.58773 -0.19245,-0.66204 -0.54616,-1.09659 -1.12318,-1.37992 l -0.493,-0.24208 h -2.286 -2.286 l -0.0219,7.112 c -0.012,3.9116 -0.004,7.15962 0.0185,7.21783 0.0293,0.0768 0.32873,0.10583 1.0923,0.10583 0.88112,0 1.06028,-0.0217 1.10332,-0.13392 z m 0.0896,-7.67784 c -0.0226,-0.0589 -0.0309,-1.13523 -0.0185,-2.39183 l 0.0226,-2.28474 0.69929,0.003 c 0.60879,0.003 0.72386,0.0277 0.889,0.19268 0.18302,0.18284 0.19062,0.25407 0.21565,2.02095 0.0291,2.05646 -0.009,2.26159 -0.46115,2.4503 -0.35847,0.14979 -1.29051,0.15636 -1.34687,0.009 z m -17.71858,-10.9848 c 0.58497,-0.16659 1.10312,-0.59314 1.38009,-1.13612 l 0.2559,-0.50168 0.028,-1.97212 c 0.0336,-2.37087 -0.0224,-2.66146 -0.64274,-3.33423 -0.22067,-0.23932 -1.00772,-0.8797 -1.74899,-1.42305 -0.74128,-0.54334 -1.42708,-1.09546 -1.524,-1.22692 -0.15053,-0.20417 -0.18067,-0.38827 -0.20672,-1.26246 -0.0387,-1.29975 0.0469,-1.62389 0.46529,-1.76197 0.41537,-0.13709 0.96594,-0.0524 1.15184,0.17716 0.12855,0.15875 0.14903,0.37244 0.14903,1.55473 0,0.9532 0.0309,1.40164 0.1016,1.47229 0.16028,0.16028 2.04824,0.13866 2.18408,-0.025 0.165,-0.19882 0.0675,-3.2624 -0.12036,-3.77935 -0.2003,-0.55138 -0.64106,-1.03031 -1.16681,-1.26786 -0.41618,-0.18806 -0.55094,-0.20251 -1.88751,-0.20251 -1.41211,0 -1.44866,0.005 -1.93233,0.24207 -0.31867,0.15648 -0.58093,0.36347 -0.74167,0.58536 -0.42969,0.59317 -0.501,1.00738 -0.501,2.91009 0,2.53899 0.0466,2.62187 2.46005,4.37628 0.67781,0.49272 1.29705,0.9673 1.37608,1.05462 0.079,0.0873 0.18571,0.38426 0.23706,0.65984 0.0948,0.50883 0.0635,2.33421 -0.0444,2.58511 -0.088,0.20457 -0.42977,0.32896 -0.90396,0.32896 -0.33643,0 -0.4658,-0.0426 -0.63102,-0.20781 -0.206,-0.20602 -0.20781,-0.22181 -0.20781,-1.80997 0,-1.26551 -0.0248,-1.6227 -0.11784,-1.69995 -0.0784,-0.0651 -0.454,-0.0898 -1.12183,-0.0739 l -1.004,0.0239 -0.0228,1.90357 c -0.0189,1.57741 0.001,1.97952 0.11658,2.34682 0.26884,0.85469 0.93953,1.38741 1.94688,1.54637 0.59334,0.0936 2.23289,0.0431 2.67339,-0.0823 z m 12.06803,-0.0671 c 0.7992,-0.30366 1.20738,-0.76477 1.42339,-1.60791 0.10343,-0.40375 0.123,-1.04015 0.10486,-3.4109 l -0.0223,-2.91454 -1.67011,-0.023 -1.6701,-0.0229 -0.0481,0.19227 c -0.0264,0.10576 -0.0369,0.55424 -0.0232,0.99662 l 0.0248,0.80434 0.55033,0.0423 0.55033,0.0423 0.023,1.69248 c 0.0149,1.09727 -0.01,1.77211 -0.0708,1.9189 -0.12928,0.3121 -0.48436,0.43809 -1.10766,0.393 -0.90072,-0.0652 -0.83427,0.36115 -0.83427,-5.35224 0,-3.8655 0.0233,-4.95933 0.10818,-5.07539 0.19759,-0.27022 0.8783,-0.34818 1.5088,-0.1728 0.25535,0.071 0.33035,0.44109 0.33035,1.6301 0,0.79277 0.0324,1.19685 0.1016,1.26602 0.11805,0.11805 1.90513,0.14187 2.08507,0.0278 0.0887,-0.0563 0.10652,-0.42489 0.0847,-1.75554 -0.0268,-1.63336 -0.0345,-1.69713 -0.25212,-2.10765 -0.27881,-0.52587 -0.50725,-0.7421 -1.0466,-0.9907 -0.39235,-0.18084 -0.53331,-0.19463 -1.98861,-0.19463 -1.40999,0 -1.60446,0.0176 -1.94828,0.17679 -0.48657,0.22522 -0.90937,0.64803 -1.1346,1.13459 -0.17271,0.37314 -0.17733,0.50868 -0.20034,5.87656 -0.0259,6.04287 -0.0281,6.0121 0.4862,6.72213 0.30681,0.42353 0.92172,0.75647 1.59476,0.86346 0.80375,0.12777 2.53229,0.0416 3.04063,-0.15152 z m -26.40787,-0.16122 c 0.6063,-0.24547 0.98439,-0.54845 1.24998,-1.00164 0.46102,-0.78667 0.468,-0.88609 0.44155,-6.28577 -0.0243,-4.95325 -0.0251,-4.97386 -0.21755,-5.44981 -0.24821,-0.61383 -0.82952,-1.16628 -1.50443,-1.42974 -0.46307,-0.18077 -0.66262,-0.19957 -2.47316,-0.23301 -1.08319,-0.02 -2.06426,-0.0126 -2.18016,0.0165 l -0.21073,0.0529 v 7.22328 c 0,3.9728 0.0282,7.25144 0.0626,7.28585 0.0344,0.0344 1.03455,0.0493 2.2225,0.033 1.97435,-0.027 2.19854,-0.0452 2.60942,-0.21158 z m -2.52383,-7.08583 v -5.21596 h 0.51071 c 0.2809,0 0.64032,0.0541 0.79871,0.12033 0.57168,0.23886 0.56013,0.12622 0.53421,5.21171 l -0.0233,4.57021 -0.23419,0.23414 c -0.20945,0.20941 -0.3056,0.23738 -0.91017,0.26484 l -0.67597,0.0307 z m 10.78594,7.18078 c 0.0747,-0.19462 0.0606,-1.75255 -0.017,-1.87461 -0.0461,-0.0725 -0.45757,-0.11056 -1.37454,-0.127 l -1.30876,-0.0235 v -2.07433 -2.07433 l 1.17966,-0.0237 c 0.69324,-0.0139 1.22564,-0.0618 1.29117,-0.1162 0.0796,-0.0661 0.11151,-0.35323 0.11151,-1.00314 0,-0.64991 -0.0319,-0.93709 -0.11151,-1.00314 -0.0655,-0.0544 -0.59793,-0.10231 -1.29117,-0.11621 l -1.17966,-0.0237 v -1.905 -1.905 l 1.143,-0.0206 c 1.67108,-0.0302 1.524,0.0774 1.524,-1.11492 0,-0.83862 -0.0222,-1.01385 -0.13392,-1.05672 -0.0737,-0.0283 -1.17094,-0.0514 -2.4384,-0.0514 -1.67948,0 -2.33203,0.0276 -2.40608,0.1016 -0.1472,0.1472 -0.1472,14.29693 0,14.44413 0.0743,0.0743 0.75434,0.1016 2.53094,0.1016 2.13714,0 2.43552,-0.0161 2.48074,-0.13392 z m 11.4607,-7.16684 0.0216,-7.25844 -0.19098,-0.0475 c -0.10503,-0.0261 -0.61007,-0.0364 -1.1223,-0.0229 l -0.93134,0.0246 -0.0219,7.19667 c -0.012,3.95817 -0.003,7.24543 0.0195,7.30504 0.0313,0.082 0.30447,0.10261 1.12253,0.0847 l 1.08119,-0.0237 z m 11.78935,2.85576 c 0.0233,-2.42146 0.0686,-4.30741 0.10061,-4.191 0.032,0.11642 0.48381,2.05952 1.00391,4.318 0.52011,2.25849 0.98433,4.15396 1.0316,4.21217 0.0612,0.0754 0.42142,0.10583 1.25186,0.10583 0.98505,0 1.17388,-0.0208 1.2173,-0.13392 0.0283,-0.0737 0.0514,-3.32359 0.0514,-7.22207 0,-5.40011 -0.0242,-7.11234 -0.1016,-7.18974 -0.10646,-0.10646 -1.62867,-0.14709 -1.88114,-0.0502 -0.11947,0.0459 -0.13393,0.47716 -0.13393,3.99627 0,2.45921 -0.0299,3.91458 -0.0795,3.86444 -0.0437,-0.0442 -0.47644,-1.80838 -0.96161,-3.92032 -0.5436,-2.3663 -0.92736,-3.86853 -1.00002,-3.91453 -0.1321,-0.0837 -2.27287,-0.10596 -2.48163,-0.0259 -0.12067,0.0463 -0.13392,0.76543 -0.13392,7.26722 0,3.96871 0.0265,7.24238 0.059,7.27482 0.0324,0.0324 0.49916,0.0483 1.03716,0.0353 l 0.97818,-0.0237 z"
       id="path93"
       inkscape:connector-curvature="0"
       sodipodi:nodetypes="cscsscccsccccccccccccccsccccccscccccccccccccccscccccccccccccsccccsccccscccscccccccccccsccsscscccscscccccccccccccccccccccccccccccscccccccsccscscccccccsccccccccccccccccsccccccccccccccccscccccsscccccccsscsccccccsccccccccccccscsccccccccccccscccccccccccccccccscscccccccsccccccccccscccccccccccccccccccccsccccsccsscccscsccccccccccscccccccccccsccscccccsccsccccccccccccsccccccscccccccccccccccsccccccscscssccccccccccccccccscsscsccccscccc" />
  </g>
  <metadata
     id="metadata140">
    <rdf:RDF>
      <cc:Work
         rdf:about="">
        <dc:title></dc:title>
      </cc:Work>
    </rdf:RDF>
  </metadata>
</svg>
